<svg width="10" height="6" viewBox="0 0 10 6" fill="none" xmlns="http://www.w3.org/2000/svg">
<path d="M4.81119 5.55209C5.02115 5.55209 5.20181 5.46908 5.36295 5.30794L9.02017 1.55795C9.14713 1.43099 9.21548 1.27474 9.21548 1.0892C9.21548 0.708336 8.91275 0.405602 8.53677 0.405602C8.35123 0.405602 8.17545 0.478844 8.03873 0.615562L4.81607 3.93587L1.58853 0.615562C1.45181 0.483726 1.28091 0.405602 1.09048 0.405602C0.714508 0.405602 0.411774 0.708336 0.411774 1.0892C0.411774 1.27474 0.480133 1.43099 0.607086 1.56283L4.26431 5.30794C4.43521 5.47396 4.60611 5.55209 4.81119 5.55209Z" fill="#08090A"/>
</svg>
