<svg width="12" height="8" viewBox="0 0 12 8" fill="none" xmlns="http://www.w3.org/2000/svg">
<path fill-rule="evenodd" clip-rule="evenodd" d="M6 3.04348C5.31041 3.04348 4.74931 3.62202 4.74931 4.33331C4.74931 5.04461 5.31041 5.62315 6 5.62315C6.6896 5.62315 7.2507 5.04449 7.2507 4.33331C7.2507 3.62214 6.6896 3.04348 6 3.04348ZM5.99996 0.666672C3.63806 0.666672 1.30756 2.41374 0.666626 4.33334C1.30756 6.25294 3.63806 8.00001 5.99996 8.00001C8.36186 8.00001 10.6924 6.25294 11.3333 4.33334C10.6924 2.41374 8.36186 0.666672 5.99996 0.666672ZM6.00008 6.43261C4.87755 6.43261 3.96448 5.49085 3.96448 4.33331C3.96448 3.17577 4.87755 2.23401 6.00008 2.23401C7.12261 2.23401 8.03568 3.17577 8.03568 4.33331C8.03568 5.49085 7.12261 6.43261 6.00008 6.43261Z" fill="#025992"/>
</svg>
